<svg xmlns="http://www.w3.org/2000/svg" viewBox="0 0 1200 675" role="img" aria-label="Agent OS Mission Control schematic">
  <defs>
    <linearGradient id="bg" x1="0" y1="0" x2="1" y2="1">
      <stop offset="0%" stop-color="#0b1020"/>
      <stop offset="100%" stop-color="#121a2e"/>
    </linearGradient>
    <linearGradient id="accent" x1="0" y1="0" x2="1" y2="0">
      <stop offset="0%" stop-color="#22d3ee"/>
      <stop offset="100%" stop-color="#a78bfa"/>
    </linearGradient>
  </defs>
  <rect width="1200" height="675" fill="url(#bg)"/>
  <rect x="24" y="24" width="1152" height="56" rx="10" fill="#1a2238" stroke="#2d3a5c"/>
  <text x="48" y="60" fill="#e2e8f0" font-family="Segoe UI, system-ui, sans-serif" font-size="22" font-weight="600">Agent OS  Mission Control</text>
  <text x="900" y="60" fill="#22d3ee" font-family="Segoe UI, system-ui, sans-serif" font-size="16">ONLINE À os.flexgrafik.nl</text>
  <g font-family="Segoe UI, system-ui, sans-serif" font-size="14" fill="#94a3b8">
    <rect x="48" y="104" width="90" height="32" rx="6" fill="#24304f"/><text x="62" y="125" fill="#e2e8f0">Zadania</text>
    <rect x="148" y="104" width="90" height="32" rx="6" fill="#1e293b" stroke="#22d3ee"/><text x="162" y="125" fill="#22d3ee">Kolejka</text>
    <rect x="248" y="104" width="90" height="32" rx="6" fill="#24304f"/><text x="262" y="125" fill="#e2e8f0">Historia</text>
    <rect x="348" y="104" width="90" height="32" rx="6" fill="#24304f"/><text x="362" y="125" fill="#e2e8f0">Koszty</text>
  </g>
  <rect x="24" y="156" width="360" height="495" rx="12" fill="#141c31" stroke="#2d3a5c"/>
  <text x="48" y="190" fill="#cbd5e1" font-family="Segoe UI, system-ui, sans-serif" font-size="16" font-weight="600">Task queue</text>
  <rect x="48" y="210" width="312" height="64" rx="8" fill="#1a2238"/>
  <text x="64" y="238" fill="#e2e8f0" font-family="Segoe UI, system-ui, sans-serif" font-size="14">WAITING_RUNNER À agent-os</text>
  <text x="64" y="258" fill="#94a3b8" font-family="Segoe UI, system-ui, sans-serif" font-size="12">Hybrid local runner claim</text>
  <rect x="48" y="290" width="312" height="64" rx="8" fill="#1a2238"/>
  <text x="64" y="318" fill="#e2e8f0" font-family="Segoe UI, system-ui, sans-serif" font-size="14">REVIEWING À HITL gate</text>
  <text x="64" y="338" fill="#94a3b8" font-family="Segoe UI, system-ui, sans-serif" font-size="12">Approve / Reject</text>
  <rect x="408" y="156" width="768" height="495" rx="12" fill="#141c31" stroke="#2d3a5c"/>
  <text x="432" y="190" fill="#cbd5e1" font-family="Segoe UI, system-ui, sans-serif" font-size="16" font-weight="600">Task detail  REVIEWING</text>
  <rect x="432" y="210" width="720" height="120" rx="8" fill="#1a2238"/>
  <text x="448" y="240" fill="#94a3b8" font-family="ui-monospace, Consolas, monospace" font-size="13">+ mock diff (hybrid e2e)</text>
  <text x="448" y="262" fill="#94a3b8" font-family="ui-monospace, Consolas, monospace" font-size="13">  test_result: PASS</text>
  <rect x="432" y="350" width="160" height="40" rx="8" fill="#14532d" stroke="#22c55e"/>
  <text x="472" y="376" fill="#bbf7d0" font-family="Segoe UI, system-ui, sans-serif" font-size="14" font-weight="600">APPROVE</text>
  <rect x="608" y="350" width="160" height="40" rx="8" fill="#450a0a" stroke="#ef4444"/>
  <text x="656" y="376" fill="#fecaca" font-family="Segoe UI, system-ui, sans-serif" font-size="14" font-weight="600">REJECT</text>
  <rect x="24" y="620" width="1152" height="31" rx="6" fill="#0f172a"/>
  <text x="48" y="641" fill="#64748b" font-family="Segoe UI, system-ui, sans-serif" font-size="12">Schematic À capture live UI at https://os.flexgrafik.nl (Basic Auth)</text>
</svg>
